<svg xmlns="http://www.w3.org/2000/svg" width="237.201" height="40" viewBox="842 7036.636 237.201 40"><g data-name="Group 3282"><path d="M1078.41 7048.176c-1.27-2.3-4.006-4.045-6.978-4.045-2.614 0-4.913 1.07-4.913 3.846 0 2.337 2.894 3.923 5.907 5.866 3.288 2.06 6.698 4.595 6.698 8.997 0 5.748-5.588 9.274-12.05 9.274-2.655 0-5.428-.515-8.56-1.704l.514-7.65c1.508 3.053 4.323 5.47 8.482 5.47 3.21 0 5.588-1.545 5.588-4.242 0-2.299-1.944-3.725-4.32-5.15-4.995-3.012-8.163-5.432-8.163-9.79 0-6.542 5.468-8.721 11.136-8.721 3.287 0 5.35.595 7.45.595l-.792 7.254m-27.703 6.855c-.716 1.19-1.623 2.812-2.181 4.004-.474 2.258-.713 5.272-.713 8.6 0 1.387.239 3.25.872 3.884h-8.282c1.464-1.387 2.06-9.906 1.983-12.603-1.11-3.843-2.62-7.53-4.917-12.01-1.463-2.812-3.17-5.47-4.24-5.984 1.862-.157 4.24-.277 5.391-.277 2.06 0 2.616.277 3.886 3.053 1.977 4.48 3.444 7.845 4.317 10.344 2.102-3.29 3.567-5.549 5.47-8.64.475-.754.871-1.704.871-2.617 0-.715-.12-1.506-.435-1.863h8.204c-1.585.357-8.72 11.574-10.226 14.109m-28.814-6.933-4.912 10.66h8.004l-3.092-10.66m9.633 23.697c-2.618 0-2.814-.077-4.916-7.29l-.751-2.656c-1.268.594-3.53.871-7.135.871h-3.646l-.634 1.347c-.912 2.024-2.14 4.398-2.14 6.066 0 .397.04.831.199 1.387h-21.64c1.229-1.386 1.626-5.865 2.22-13.991l.118-1.941c.317-4.638.558-8.205.516-10.7-.04-2.06-.238-3.37-.793-3.963h8.364c-1.19.912-1.627 5.825-2.18 13.952l-.16 1.94c-.199 3.013-.593 6.104-.593 9.116 0 1.385.554 1.703 1.982 1.703 5.071 0 6.342-.119 8.638-1.665 1.426-2.616 3.054-5.906 4.637-9.314l2.143-4.557c2.02-4.281 4-8.642 4-9.473 0-.596-.158-1.15-.394-1.705h6.658s2.694 9.989 3.289 12.127l1.307 4.836c2.258 8.126 3.686 12.088 5.589 13.634-1.588.199-3.846.276-4.678.276m-53.939.319c-7.887 0-12.446-6.5-12.446-13.791 0-10.146 5.508-17.996 16.012-17.996 3.289 0 4.836.595 7.49.595l-.792 7.808c-1.506-2.735-3.965-4.598-7.252-4.598-6.54 0-9.195 7.056-9.195 13.12 0 6.578 3.687 10.184 8.6 10.184 2.655 0 4.993-.714 8.918-3.448-1.586 5.075-5.273 8.126-11.335 8.126m-27.345-27.466c-.754 0-1.667 0-2.378.08-.239 1.307-.438 3.566-.715 7.211l-.16 2.142c.4.08.913.121 1.39.121 3.802 0 6.42-2.301 6.42-5.787 0-2.38-1.664-3.767-4.557-3.767m11.055 28.18c-2.258 0-2.814-.359-3.566-1.39l-8.561-11.89c-.674-.91-1.19-1.664-2.258-1.664h-.2l-.156 2.3c-.2 3.13-.319 5.63-.319 7.491.04 2.06.278 3.328.834 3.844h-8.284c1.188-1.07 1.623-4.638 2.298-13.992l.12-1.94c.317-4.597.555-8.166.515-10.66-.041-2.181-.277-3.53-.873-4.005h11.295c3.685 0 8.759.636 8.759 6.62 0 4.912-3.291 7.609-7.372 8.875.397.358 1.11 1.27 1.546 1.825l6.222 8.244c3.884 5.113 4.2 5.35 5.59 6.064-1.745.197-4.083.278-5.59.278m-38.599-24.73-4.957 10.66h8.045l-3.088-10.66m9.628 23.697c-2.614 0-2.812-.077-4.913-7.29l-.753-2.656c-1.27.594-3.529.871-7.135.871h-3.646l-.633 1.347c-.635 1.429-2.18 4.363-2.141 6.066 0 .397.039.793.199 1.387h-7.332c2.1-2.1 4.756-6.975 8.442-14.862l2.14-4.557c1.941-4.121 4.003-8.798 4.003-9.473 0-.596-.157-1.15-.396-1.705h6.66s1.74 6.62 3.288 12.127l1.307 4.837c2.26 8.125 3.686 12.087 5.588 13.633a49.148 49.148 0 0 1-4.678.275m-37.73-27.186c-.596 0-1.387 0-2.14.08-.318 2.14-.516 4.2-.673 6.459 0 0-.12 1.94-.12 1.862h.793c3.884 0 7.452-1.347 7.452-4.912 0-2.063-1.705-3.49-5.313-3.49m-.988 12.128h-2.18l-.317 4.518a89.46 89.46 0 0 0-.278 5.627c0 .28.872.873 2.931.873 4.281 0 7.096-2.14 7.096-5.668 0-3.924-3.211-5.35-7.252-5.35m.475 14.783H883.38c1.348-1.19 1.705-5.827 2.299-13.992l.118-1.901c.32-4.638.556-8.205.516-10.7-.039-2.14-.277-3.529-.872-4.004h11.969c2.853 0 8.561.16 8.561 6.103 0 3.963-3.687 6.42-7.055 7.295 4.756.475 8.323 2.773 8.323 7.687-.001 5.31-4.994 9.512-13.158 9.512" fill-rule="evenodd" data-name="Path 7817"/><path d="M859.294 7036.642c-1.06 0-1.28.181-1.623.566a6.152 6.152 0 0 0-.425-.014c-.815 0-1.863.123-2.756.721-.863.57-1.273 1.573-.813 2.31 0 0 .308-.45 1.323-.45.142 0 .3.02.469.029 1.401.168 2.439.906 2.313 2.85-.113 1.95-.843 4.121-3.83 4.148 0 0-.385 0-.795-.04-1.39-.15-1.828-1.02-1.828-1.02s1.202-.329 1.212-1.854c-.01-1.04-.913-1.985-2.217-2.37a5.023 5.023 0 0 0-1.384-.189c-1.537 0-3.263.645-4.426 2.166-2.638 3.483-2.852 8.557-2.209 13.277.648 4.737 3.649 9.118 3.737 9.239.064.084.121.127.186.127a.157.157 0 0 0 .103-.043c1.296-1.256 2.532-2.977 3.061-4.126.566.45.27 1.409-.04 2.432-.296 1.046-1.015 2.44-1.275 2.887-.25.438-.587.95-.135 1.215a.27.27 0 0 0 .175.04c.58 0 1.948-1.007 3.474-3.042 1.707-2.29 2.574-4.32 2.574-4.32.125.026.334.24.3.814-.024.588-.625 2.764-1.796 4.787-1.184 2.028-2.278 3.296-2.498 3.582-.136.17-.02.27.067.338.087.06 2.18 2.01 5.223 3.67 3.604 1.918 5.202 2.264 5.202 2.264s1.594-.341 5.198-2.255c3.04-1.66 5.144-3.623 5.221-3.689.088-.057.2-.154.068-.336-.208-.274-1.305-1.546-2.486-3.574-1.168-2.01-1.792-4.203-1.801-4.783-.024-.578.172-.772.292-.818 0 0 .875 2.044 2.583 4.32 1.533 2.035 2.888 3.043 3.471 3.043a.317.317 0 0 0 .181-.041c.439-.27.112-.785-.145-1.215-.24-.447-.969-1.83-1.278-2.887-.297-1.037-.606-1.99-.03-2.432.53 1.15 1.758 2.874 3.058 4.117.028.03.069.048.112.052.057 0 .118-.043.172-.123.095-.125 3.102-4.501 3.744-9.243.645-4.73.432-9.794-2.208-13.277-1.156-1.525-2.895-2.177-4.442-2.177a5 5 0 0 0-1.366.188c-1.314.397-2.213 1.352-2.206 2.378 0 1.525 1.208 1.853 1.208 1.853s-.404.853-1.844 1.026c-.258.029-.519.047-.78.047-1.083 0-1.995-.338-2.836-1.534-.816-1.14-.79-3.492-.837-4.279-.036-.797-.207-2.584-1.044-3.312-.835-.748-1.852-1-3.12-1.05-.093.007-.176.007-.254.007" fill-rule="evenodd" data-name="Path 7818"/></g></svg>