<svg xmlns="http://www.w3.org/2000/svg" width="308.3" height="83.371" viewBox="164 6951 308.3 83.371"><g data-name="Group 4758"><path d="M472.3 7020.186v-1.744c-.23-3.067-.783-5.848-1.745-8.252-1.926-4.815-5.176-9.337-7.934-14.123-5.118-8.88-10.877-19.14-16.027-28.086-4.241-7.368-8.194-16.834-18.724-16.98-10.95-.152-14.592 9.518-18.566 16.502-12.618 22.177-38.402 66.807-38.402 66.807h11.901s24.602-43.533 36.815-65.536c1.562-2.814 4.657-6.507 8.252-6.507 5.452 0 8.18 6.49 10.632 10.95 6.561 11.944 12.885 23.373 19.041 34.909 1.935 3.63 5.864 8.404 3.174 13.33-1.756 3.213-5.293 3.017-10.314 3.017-.008.082-48.557 0-48.557 0v9.837h44.114s10.385.314 14.597-.476c6.968-1.31 10.753-6.712 11.743-13.648Z" fill-rule="evenodd" data-name="Path 7808"/><g data-name="Group 3285"><g data-name="Group 3282"><path d="M225.748 6951v2.062c0 .825-.274 1.63-.824 2.415l-52.91 73.885h53.264v5.01H164v-2.181c0-.746.238-1.453.708-2.12l53.028-74.064h-52.204V6951h60.216Z" fill-rule="evenodd" data-name="Path 7809"/></g><g data-name="Group 3283"><path d="M252.202 7034.371h-6.069V6951h6.07v83.371Z" fill-rule="evenodd" data-name="Path 7810"/></g><g data-name="Group 3284"><path d="M320.568 7013.63c.236-.626.481-1.247.737-1.855.254-.61.54-1.187.855-1.74l32.758-57.917c.314-.51.63-.824.944-.942.314-.118.746-.176 1.296-.176h4.183v83.371h-5.303v-71.058c0-1.02.06-2.1.178-3.24l-32.82 58.273c-.55 1.02-1.335 1.53-2.356 1.53h-.944c-.98 0-1.766-.51-2.355-1.53l-33.703-58.332c.118 1.138.176 2.239.176 3.299v71.058h-5.243V6951h4.125c.55 0 .99.058 1.325.176.334.118.657.432.973.942l33.642 57.978c.59 1.1 1.1 2.28 1.532 3.535Z" fill-rule="evenodd" data-name="Path 7811"/></g></g></g></svg>