<svg xmlns="http://www.w3.org/2000/svg" width="296.812" height="40" viewBox="0 43.47 296.812 40"><g data-name="Group 3284"><path d="M45.539 43.754h6.115v39.482h-6.115V43.754Zm121.172 0-15.633 39.5h6.581l11.3-28.565 11.264 28.566h6.583l-15.635-39.501h-4.46Zm-67.14 39.5h6.116v-39.5h-6.115v39.5Zm-12.684-39.5L75.685 72.067 64.523 43.754h-6.766l15.633 39.5h4.443l15.633-39.5h-6.579ZM32.231 68.399c-1.909 5.122-7.01 8.975-12.579 8.865a13.113 13.113 0 0 1-9.506-4.03c-2.577-2.661-3.996-6.132-3.996-9.765 0-3.63 1.42-7.099 3.996-9.766a13.131 13.131 0 0 1 9.506-4.03c5.623-.106 10.771 3.814 12.638 9.014h6.677c-2.642-8.795-10.113-15.254-19.315-15.214-5.284 0-10.232 2.105-13.937 5.93C2.03 53.206 0 58.204 0 63.469c0 5.267 2.03 10.265 5.715 14.071 3.705 3.825 8.653 5.93 13.937 5.93 9.153.04 16.586-6.351 19.268-15.07h-6.689Zm111.695 0c-1.907 5.122-7.008 8.975-12.58 8.865a13.111 13.111 0 0 1-9.504-4.03c-2.576-2.661-3.995-6.132-3.995-9.765 0-3.63 1.42-7.099 3.995-9.766a13.13 13.13 0 0 1 9.504-4.03c5.626-.106 10.774 3.814 12.638 9.014h6.677c-2.642-8.795-10.11-15.254-19.315-15.214-5.283 0-10.23 2.105-13.935 5.93-3.684 3.803-5.714 8.801-5.714 14.066 0 5.267 2.03 10.265 5.714 14.071 3.705 3.825 8.652 5.93 13.935 5.93 9.153.04 16.59-6.351 19.27-15.07h-6.69Z" fill-rule="evenodd" data-name="Path 7680"/><g data-name="Group 2869"><path d="M213.402 63.471c0-11.047 8.954-20 20.001-20 11.046 0 20 8.953 20 20 0 11.045-8.954 20-20 20-11.047 0-20-8.955-20-20Zm5.83-2.159a2.159 2.159 0 0 0 0 4.316 2.159 2.159 0 0 0 0-4.316Zm7.084 0a2.159 2.159 0 1 0 2.16 2.16c0-1.19-.97-2.16-2.16-2.16Zm14.172 0c-1.19 0-2.16.97-2.16 2.16a2.159 2.159 0 1 0 2.16-2.16Zm7.085 0a2.159 2.159 0 0 0 0 4.316 2.159 2.159 0 0 0 0-4.316Zm-12.645.632a2.159 2.159 0 0 0-3.052 3.052c.841.84 2.211.843 3.052 0 .84-.84.84-2.21 0-3.052Z" fill-rule="evenodd" data-name="Path 7698"/><g data-name="Group 2868"><path d="M271.874 72.734c-.818.41-2.455.82-4.553.82-4.86 0-8.516-3.07-8.516-8.722 0-5.396 3.656-9.054 9.003-9.054 2.148 0 3.504.461 4.092.768l-.537 1.815c-.845-.41-2.047-.717-3.478-.717-4.042 0-6.726 2.584-6.726 7.11 0 4.221 2.429 6.931 6.623 6.931 1.356 0 2.736-.281 3.633-.714l.459 1.763Z" fill-rule="evenodd" data-name="Path 7699"/><path d="M283.589 65.216h-6.7v6.214h7.466v1.866h-9.692V56.06h9.31v1.866h-7.085v5.448h6.7v1.843Z" fill-rule="evenodd" data-name="Path 7700"/><path d="M286.938 70.587a7.894 7.894 0 0 0 3.99 1.124c2.277 0 3.607-1.202 3.607-2.942 0-1.611-.92-2.532-3.248-3.426-2.813-.998-4.553-2.455-4.553-4.886 0-2.684 2.225-4.68 5.576-4.68 1.764 0 3.043.41 3.811.844l-.614 1.817a6.874 6.874 0 0 0-3.274-.82c-2.354 0-3.248 1.408-3.248 2.584 0 1.611 1.049 2.405 3.426 3.326 2.916 1.124 4.401 2.531 4.401 5.063 0 2.66-1.97 4.963-6.038 4.963-1.66 0-3.478-.487-4.398-1.1l.562-1.867Z" fill-rule="evenodd" data-name="Path 7701"/></g></g></g></svg>