<svg xmlns="http://www.w3.org/2000/svg" width="589.596" height="144.239" viewBox="1265 1486 589.596 144.239"><g data-name="Group 4743"><path d="M1447.308 1605.697v-3.019c-.415-5.303-1.407-10.117-3.137-14.276-3.463-8.326-9.304-16.152-14.265-24.43-9.204-15.365-19.558-33.114-28.818-48.592-7.623-12.748-14.733-29.123-33.664-29.377-19.687-.26-26.235 16.469-33.38 28.554C1311.36 1552.92 1265 1630.13 1265 1630.13h21.4s44.23-75.316 66.187-113.38c2.808-4.866 8.375-11.254 14.837-11.254 9.804 0 14.709 11.228 19.115 18.94 11.8 20.664 23.17 40.438 34.236 60.399 3.48 6.274 10.546 14.537 5.706 23.06-3.154 5.56-9.516 5.216-18.543 5.216-.014.144-87.303 0-87.303 0v17.019h79.313s18.675.547 26.249-.824c12.525-2.262 19.333-11.611 21.111-23.61Z" fill-rule="evenodd" data-name="Path 1"/><path d="M1415.2 1510.54v3.022c.417 5.304 1.408 10.114 3.138 14.274 3.463 8.329 9.304 16.151 14.265 24.434 9.204 15.36 19.555 33.113 28.815 48.59 7.626 12.746 14.733 29.12 33.667 29.374 19.687.264 26.236-16.465 33.38-28.55 22.685-38.367 69.044-115.574 69.044-115.574h-21.4s-44.23 75.313-66.19 113.38c-2.805 4.866-8.372 11.254-14.834 11.254-9.807 0-14.712-11.228-19.115-18.943-11.8-20.662-23.17-40.436-34.236-60.396-3.48-6.278-10.545-14.537-5.706-23.06 3.155-5.56 9.513-5.22 18.543-5.22.01-.14 87.303 0 87.303 0v-17.015h-79.312s-18.675-.547-26.25.82c-12.524 2.265-19.333 11.615-21.111 23.61Z" fill-rule="evenodd" data-name="Path 2"/><path d="M1704.395 1605.697v-3.019c-.415-5.303-1.407-10.117-3.137-14.276-3.463-8.326-9.304-16.152-14.265-24.43-9.204-15.365-19.555-33.114-28.815-48.592-7.626-12.748-14.733-29.123-33.667-29.377-19.687-.26-26.235 16.469-33.38 28.554-22.685 38.363-69.044 115.574-69.044 115.574h21.399s44.23-75.316 66.191-113.38c2.808-4.866 8.372-11.254 14.834-11.254 9.807 0 14.712 11.228 19.115 18.94 11.8 20.664 23.17 40.438 34.236 60.399 3.484 6.274 10.545 14.537 5.706 23.06-3.155 5.56-9.512 5.216-18.543 5.216-.01.144-87.303 0-87.303 0v17.019h79.316s18.671.547 26.246-.824c12.525-2.262 19.333-11.611 21.111-23.61Z" fill-rule="evenodd" data-name="Path 3"/><path d="M1672.287 1510.54v3.022c.417 5.304 1.408 10.114 3.138 14.274 3.463 8.329 9.308 16.151 14.265 24.434 9.204 15.36 19.558 33.113 28.818 48.59 7.623 12.746 14.733 29.12 33.664 29.374 19.687.264 26.235-16.465 33.38-28.55 22.685-38.367 69.044-115.574 69.044-115.574h-21.4s-44.23 75.313-66.187 113.38c-2.808 4.866-8.375 11.254-14.837 11.254-9.804 0-14.709-11.228-19.115-18.943-11.8-20.662-23.167-40.436-34.236-60.396-3.48-6.278-10.546-14.537-5.706-23.06 3.155-5.56 9.516-5.22 18.546-5.22.01-.14 87.3 0 87.3 0v-17.015h-79.313s-18.674-.547-26.249.82c-12.525 2.265-19.333 11.615-21.112 23.61Z" fill-rule="evenodd" data-name="Path 4"/></g></svg>