<svg xmlns="http://www.w3.org/2000/svg" width="547.745" height="134" viewBox="60 4765 547.745 134"><g data-name="Group 4764"><path d="M229.368 4876.2v-2.804c-.387-4.927-1.308-9.4-2.915-13.263-3.217-7.735-8.644-15.005-13.252-22.697-8.55-14.273-18.17-30.762-26.773-45.141-7.082-11.844-13.687-27.057-31.274-27.292-18.29-.242-24.373 15.3-31.01 26.526C103.067 4827.17 60 4898.9 60 4898.9h19.88s41.091-69.97 61.49-105.33c2.609-4.522 7.78-10.456 13.784-10.456 9.107 0 13.665 10.43 17.758 17.595 10.962 19.198 21.526 37.568 31.806 56.112 3.233 5.829 9.797 13.505 5.3 21.422-2.93 5.166-8.84 4.847-17.226 4.847-.013.134-81.106 0-81.106 0v15.81h73.683s17.349.51 24.386-.764c11.635-2.102 17.96-10.788 19.613-21.934Z" fill="#fff" fill-rule="evenodd" data-name="Path 1"/><path d="M199.54 4787.798v2.808c.386 4.927 1.307 9.396 2.914 13.26 3.217 7.738 8.644 15.005 13.252 22.7 8.55 14.27 18.167 30.762 26.77 45.14 7.084 11.842 13.686 27.054 31.277 27.29 18.29.245 24.373-15.296 31.01-26.524 21.076-35.643 64.144-107.37 64.144-107.37h-19.88s-41.091 69.967-61.493 105.331c-2.606 4.521-7.778 10.456-13.781 10.456-9.11 0-13.668-10.43-17.758-17.599-10.963-19.194-21.526-37.565-31.806-56.108-3.233-5.832-9.797-13.505-5.3-21.423 2.93-5.166 8.836-4.85 17.226-4.85.01-.13 81.105 0 81.105 0v-15.807h-73.682s-17.349-.508-24.386.762c-11.636 2.104-17.96 10.79-19.613 21.934Z" fill="#fff" fill-rule="evenodd" data-name="Path 2"/><path d="M468.206 4876.2v-2.804c-.387-4.927-1.308-9.4-2.915-13.263-3.217-7.735-8.644-15.005-13.253-22.697-8.55-14.273-18.166-30.762-26.769-45.141-7.085-11.844-13.687-27.057-31.277-27.292-18.29-.242-24.373 15.3-31.01 26.526-21.076 35.64-64.144 107.37-64.144 107.37h19.88s41.09-69.97 61.493-105.33c2.609-4.522 7.778-10.456 13.78-10.456 9.112 0 13.669 10.43 17.759 17.595 10.962 19.198 21.526 37.568 31.806 56.112 3.236 5.829 9.796 13.505 5.3 21.422-2.93 5.166-8.836 4.847-17.226 4.847-.01.134-81.106 0-81.106 0v15.81h73.686s17.346.51 24.382-.764c11.636-2.102 17.961-10.788 19.614-21.934Z" fill="#fff" fill-rule="evenodd" data-name="Path 3"/><path d="M438.377 4787.798v2.808c.386 4.927 1.307 9.396 2.915 13.26 3.217 7.738 8.647 15.005 13.252 22.7 8.55 14.27 18.17 30.762 26.772 45.14 7.082 11.842 13.687 27.054 31.275 27.29 18.29.245 24.373-15.296 31.01-26.524 21.076-35.643 64.144-107.37 64.144-107.37h-19.88s-41.092 69.967-61.49 105.331c-2.609 4.521-7.781 10.456-13.784 10.456-9.108 0-13.665-10.43-17.758-17.599-10.963-19.194-21.523-37.565-31.806-56.108-3.233-5.832-9.797-13.505-5.301-21.423 2.93-5.166 8.84-4.85 17.23-4.85.01-.13 81.102 0 81.102 0v-15.807h-73.682s-17.35-.508-24.386.762c-11.636 2.104-17.96 10.79-19.613 21.934Z" fill="#fff" fill-rule="evenodd" data-name="Path 4"/></g></svg>