<svg xmlns="http://www.w3.org/2000/svg" width="37.314" height="25" viewBox="1596 79.988 37.314 25"><g data-name="Group 3035"><g data-name="Group 2964"><path d="M1596.016 80.004h37.282v24.968h-37.282V80.004z" fill="#102576" fill-rule="evenodd" data-name="Rectangle 166"/></g><g data-name="Group 2965"><path d="M1596.016 80.004h4.672l9.781 6.55v-6.55h8.381v6.549l9.776-6.549h4.671v3.127l-7.712 5.166h7.712v8.382h-7.712l7.712 5.166v3.127h-4.669l-9.778-6.55v6.55h-8.381V98.42l-9.782 6.552h-4.67v-3.126l7.712-5.167h-7.713v-8.382h7.715l-7.715-5.167v-3.126Z" fill="#fff" fill-rule="evenodd" data-name="Path 7686"/></g><g data-name="Group 2966"><path d="M1610.076 97.487v-.582h-2.013l-12.047 8.067h2.882l11.178-7.485Z" fill="#e50019" fill-rule="evenodd" data-name="Path 7687"/></g><g data-name="Group 2967"><path d="M1619.243 87.487v.584h2.008l12.046-8.067h-2.882l-11.172 7.483Z" fill="#e50019" fill-rule="evenodd" data-name="Path 7688"/></g><g data-name="Group 2968"><path d="m1596.016 81.932 9.166 6.14h2.881l-12.047-8.068v1.928Z" fill="#e50019" fill-rule="evenodd" data-name="Path 7689"/></g><g data-name="Group 2969"><path d="m1621.253 96.905 12.045 8.067v-1.93l-9.164-6.137h-2.88Z" fill="#e50019" fill-rule="evenodd" data-name="Path 7690"/></g><g data-name="Group 2970"><path d="M1617.174 89.974v-9.97h-5.03v9.97h-16.128v5.029h16.128v9.97h5.03v-9.97h16.123v-5.029h-16.123Z" fill="#e50019" fill-rule="evenodd" data-name="Path 7691"/></g><g data-name="Group 2971"><path d="M1633.313 104.988H1596v-25h37.313v25Zm-37.28-.033h37.248V80.022h-37.248v24.933Z" fill="#1a1818" fill-rule="evenodd" data-name="Path 7692"/></g></g></svg>