<svg xmlns="http://www.w3.org/2000/svg" width="65.965" height="50" viewBox="60 68 65.965 50"><g data-name="Group 3055"><path d="M60 68h65.963v7.143H60V68z" fill="#fff" fill-rule="evenodd" data-name="Rectangle 178"/><path d="M60 110.857h65.963V118H60v-7.143z" fill="#fff" fill-rule="evenodd" data-name="Rectangle 179"/><g data-name="Group 3054"><path d="M80.395 98.531v-.351c-.045-.616-.157-1.175-.349-1.66-.387-.967-1.043-1.877-1.598-2.839-1.028-1.788-2.188-3.849-3.222-5.649-.853-1.484-1.65-3.387-3.768-3.417-2.203-.03-2.936 1.915-3.735 3.32C65.187 92.396 60 101.375 60 101.375h2.392s4.95-8.756 7.407-13.183c.313-.568.938-1.31 1.66-1.31 1.096 0 1.646 1.307 2.139 2.203 1.319 2.404 2.59 4.702 3.83 7.022.388.73 1.179 1.692.638 2.68-.355.647-1.064.608-2.073.608-.003.018-9.77 0-9.77 0v1.98h8.874s2.088.063 2.936-.096c1.403-.265 2.164-1.35 2.362-2.747Z" fill="#fff" fill-rule="evenodd" data-name="Path 7768"/><path d="M76.804 87.467v.352c.045.616.156 1.178.352 1.661.387.968 1.04 1.878 1.595 2.84 1.03 1.785 2.188 3.85 3.224 5.65.854 1.48 1.647 3.386 3.766 3.416 2.202.03 2.935-1.914 3.735-3.32 2.539-4.46 7.725-13.439 7.725-13.439h-2.395s-4.949 8.757-7.404 13.183c-.315.565-.937 1.31-1.661 1.31-1.097 0-1.644-1.307-2.137-2.203-1.322-2.403-2.593-4.702-3.831-7.022-.39-.73-1.181-1.692-.64-2.683.354-.646 1.066-.607 2.076-.607 0-.015 9.766 0 9.766 0v-1.978h-8.873s-2.089-.063-2.936.097c-1.4.261-2.164 1.349-2.362 2.743Z" fill="#fff" fill-rule="evenodd" data-name="Path 7769"/><path d="M109.158 98.531v-.351c-.045-.616-.156-1.175-.352-1.66-.384-.967-1.04-1.877-1.595-2.839-1.028-1.788-2.188-3.849-3.225-5.649-.85-1.484-1.646-3.387-3.765-3.417-2.202-.03-2.936 1.915-3.735 3.32-2.536 4.46-7.723 13.439-7.723 13.439h2.392s4.95-8.756 7.407-13.183c.313-.568.935-1.31 1.66-1.31 1.096 0 1.646 1.307 2.139 2.203 1.319 2.404 2.59 4.702 3.828 7.022.39.73 1.18 1.692.64 2.68-.355.647-1.064.608-2.076.608 0 .018-9.766 0-9.766 0v1.98h8.873s2.088.063 2.936-.096c1.403-.265 2.163-1.35 2.362-2.747Z" fill="#fff" fill-rule="evenodd" data-name="Path 7770"/><path d="M105.567 87.467v.352c.045.616.156 1.178.352 1.661.387.968 1.04 1.878 1.595 2.84 1.028 1.785 2.188 3.85 3.224 5.65.854 1.48 1.647 3.386 3.766 3.416 2.202.03 2.935-1.914 3.735-3.32 2.539-4.46 7.725-13.439 7.725-13.439h-2.395s-4.949 8.757-7.407 13.183c-.312.565-.934 1.31-1.658 1.31-1.097 0-1.647-1.307-2.14-2.203-1.32-2.403-2.59-4.702-3.828-7.022-.39-.73-1.181-1.692-.64-2.683.354-.646 1.064-.607 2.076-.607 0-.015 9.766 0 9.766 0v-1.978h-8.873s-2.089-.063-2.936.097c-1.4.261-2.164 1.349-2.362 2.743Z" fill="#fff" fill-rule="evenodd" data-name="Path 7771"/></g></g></svg>