<svg xmlns="http://www.w3.org/2000/svg" width="184.896" height="50" viewBox="165 68 184.896 50"><g data-name="Group 3385"><path d="M349.896 109.493v-1.046c-.138-1.84-.47-3.507-1.046-4.95-1.156-2.887-3.105-5.599-4.759-8.469-3.07-5.326-6.523-11.478-9.612-16.844-2.543-4.419-4.914-10.096-11.229-10.183-6.567-.091-8.75 5.708-11.134 9.896-7.568 13.3-23.031 40.066-23.031 40.066h7.137s14.755-26.108 22.08-39.303c.936-1.688 2.792-3.903 4.948-3.903 3.27 0 4.906 3.893 6.376 6.567 3.935 7.163 7.728 14.018 11.42 20.936 1.16 2.176 3.517 5.04 1.903 7.994-1.053 1.927-3.174 1.81-6.186 1.81-.004.049-29.12 0-29.12 0v5.899h26.456s6.228.188 8.754-.285c4.18-.785 6.45-4.026 7.043-8.185Z" fill="#fff" fill-rule="evenodd" data-name="Path 7808"/><g data-name="Group 3285"><g data-name="Group 3282"><path d="M202.032 68v1.237c0 .494-.164.978-.494 1.448l-31.732 44.311h31.944V118H165v-1.308c0-.447.143-.87.425-1.271l31.802-44.418H165.92V68h36.113Z" fill="#fff" fill-rule="evenodd" data-name="Path 7809"/></g><g data-name="Group 3283"><path d="M217.897 118h-3.64V68h3.64v50Z" fill="#fff" fill-rule="evenodd" data-name="Path 7810"/></g><g data-name="Group 3284"><path d="M258.898 105.561c.142-.375.289-.748.442-1.113a9.27 9.27 0 0 1 .513-1.043L279.5 68.671c.188-.306.378-.495.566-.565.188-.071.448-.106.777-.106h2.51v50h-3.181V75.384c0-.611.036-1.26.106-1.943l-19.682 34.948c-.33.612-.802.918-1.414.918h-.566c-.588 0-1.06-.306-1.412-.918L236.99 73.406c.07.683.106 1.343.106 1.978V118h-3.145V68h2.474c.33 0 .594.035.795.106.2.07.394.259.583.565l20.176 34.77c.354.66.66 1.368.92 2.12Z" fill="#fff" fill-rule="evenodd" data-name="Path 7811"/></g></g></g></svg>