<svg xmlns="http://www.w3.org/2000/svg" width="565.7" height="152.978" viewBox="60 3475 565.7 152.978"><g data-name="Group 4758"><path d="M625.7 3601.95v-3.2c-.423-5.628-1.436-10.731-3.201-15.142-3.535-8.834-9.498-17.133-14.558-25.914-9.391-16.294-19.958-35.12-29.41-51.536-7.781-13.519-15.033-30.888-34.355-31.155-20.091-.28-26.774 17.463-34.066 30.279-23.153 40.692-70.465 122.583-70.465 122.583h21.837s45.143-79.879 67.553-120.251c2.865-5.164 8.545-11.94 15.14-11.94 10.005 0 15.012 11.91 19.51 20.092 12.038 21.916 23.642 42.887 34.938 64.054 3.551 6.66 10.76 15.421 5.823 24.459-3.221 5.897-9.71 5.537-18.925 5.537-.013.15-89.097 0-89.097 0v18.049h80.945s19.055.576 26.784-.873c12.786-2.402 19.732-12.316 21.547-25.042Z" fill-rule="evenodd" data-name="Path 7808"/><g data-name="Group 3285"><g data-name="Group 3282"><path d="M173.302 3475v3.784c0 1.513-.503 2.992-1.513 4.431l-97.085 135.572h97.735v9.191H60v-4c0-1.37.436-2.666 1.3-3.892l97.3-135.898H62.813V3475h110.49Z" fill-rule="evenodd" data-name="Path 7809"/></g><g data-name="Group 3283"><path d="M221.843 3627.978h-11.137V3475h11.137v152.978Z" fill-rule="evenodd" data-name="Path 7810"/></g><g data-name="Group 3284"><path d="M347.287 3589.921c.433-1.15.883-2.289 1.353-3.405.466-1.119.99-2.178 1.569-3.19l60.107-106.274c.577-.936 1.156-1.512 1.732-1.729.577-.216 1.37-.323 2.379-.323h7.675v152.978h-9.73v-130.385c0-1.872.11-3.854.326-5.946l-60.22 106.926c-1.01 1.872-2.452 2.808-4.324 2.808h-1.733c-1.799 0-3.241-.936-4.32-2.808l-61.843-107.033a58.72 58.72 0 0 1 .323 6.053v130.385h-9.621V3475h7.569c1.01 0 1.819.107 2.432.323.613.217 1.206.793 1.785 1.73l61.73 106.382a44.086 44.086 0 0 1 2.811 6.486Z" fill-rule="evenodd" data-name="Path 7811"/></g></g></g></svg>